<svg id="Layer_1" data-name="Layer 1" xmlns="http://www.w3.org/2000/svg" viewBox="0 0 128.17 89.71"><title>arrow-32</title><path d="M60.88,789.34a41.05,41.05,0,0,0,0-11.78,9.07,9.07,0,0,1-.09-1.44c0.06-3,.36-6.08.14-9.1s-0.29-6.05-.23-9.1c0.09-4.64-.05-9.28-0.1-13.91,0-1.12-.09-2.24,0-3.35a3.3,3.3,0,0,1,3.48-3.21c0.48,0,1,0,1.44.06,10.53,1,21.09,1,31.64,1,5.29,0,10.52.8,15.77,1.28a143,143,0,0,0,15.82.25,1.91,1.91,0,0,0,1.91-1.79,37.48,37.48,0,0,0,.09-3.82c-0.07-3.2-.2-6.4-0.27-9.59a4.41,4.41,0,0,1,1.4-3.45,1.75,1.75,0,0,1,2.56,0c2.29,3.31,5.38,5.91,7.9,9a38.23,38.23,0,0,0,5.11,5,203.79,203.79,0,0,0,27,19.14c3.57,2.13,7.06,4.39,10.58,6.61,0.81,0.51,1.59,1.08,2.38,1.61,1.87,1.25,1.66,3.51.16,4.94a14.48,14.48,0,0,1-1.94,1.4c-8.73,5.94-17.52,11.78-26.17,17.82a141.62,141.62,0,0,0-22.72,19.87,42.46,42.46,0,0,1-3.42,3.33,1.46,1.46,0,0,1-2.47-1c0.09-4.95-.92-9.88-0.13-14.84a13.22,13.22,0,0,0,0-2.39,1.28,1.28,0,0,0-1.3-1.13c-0.16,0-.32,0-0.48,0-7,1-13.92,2-20.89,3a46.8,46.8,0,0,1-5.71.61,36.82,36.82,0,0,0-9,1.29,30.28,30.28,0,0,1-6.16.84c-2.71.16-5.43,0.31-8.12,0.66q-7.6,1-15.17,2.21c-2,.32-3-0.59-3-2.64C60.85,794.16,60.88,791.6,60.88,789.34Zm17.25-1.88a4.3,4.3,0,0,0,2.12-1.83c5.48-6.84,11-13.68,15.9-20.93,1.88-2.76,3.69-5.59,5.33-8.5,1.16-2.07,2-4.33,2.94-6.52a3,3,0,0,0,.18-0.93,0.53,0.53,0,0,0-.13-0.41,1.11,1.11,0,0,0-.78,0c-2.69,3-4.67,6.44-6.81,9.78-5.93,9.26-11.6,18.68-18,27.6a8.71,8.71,0,0,0-.75,1.72c-1.83,1-2.89,2.8-4,4.48a0.49,0.49,0,0,0,.2.36,0.47,0.47,0,0,0,.41.07A9.47,9.47,0,0,0,78.13,787.46Zm0-43.72c-1.75-.14-2.32.23-2.56,2a39.18,39.18,0,0,1-2.05,7.87c-1.5,4.21-3.06,8.4-4.59,12.61-0.32.89-.59,1.8-0.86,2.71a0.49,0.49,0,0,0,.28.3,1.89,1.89,0,0,0,.83-0.42q5.18-6.29,10.32-12.62c2.12-2.61,4.16-5.27,6.33-7.83a18.44,18.44,0,0,1,2.81-2.57,2.12,2.12,0,0,1,2.88.82,3.9,3.9,0,0,1,.52,2.77,24.74,24.74,0,0,1-1.38,4.56,78,78,0,0,1-4.26,8c-3.46,5.56-7.09,11-10.66,16.51-2.18,3.35-4.4,6.67-6.57,10A25.23,25.23,0,0,0,67.89,791a0.64,0.64,0,0,0,.1.42,0.45,0.45,0,0,0,.77.17,34.43,34.43,0,0,0,3.39-3.35c2.3-2.87,4.58-5.76,6.65-8.79,3.25-4.75,6.35-9.6,9.46-14.44,4.06-6.32,7.87-12.8,12.32-18.86a1.74,1.74,0,0,0,.38-0.85,0.93,0.93,0,0,0-.33-0.75,20.29,20.29,0,0,0-3.31-.42c-2.88,0-5.75.08-8.63,0C85.19,744.09,81.68,743.89,78.17,743.74Zm7,47.46c0.89,0,1.37,0,1.85,0a3.58,3.58,0,0,0,3.24-1.69c0.36-.53.77-1,1.17-1.52A260.52,260.52,0,0,0,112,757.37a33.45,33.45,0,0,0,3.07-7,8,8,0,0,0,.13-2.34,0.43,0.43,0,0,0-.7-0.35c-2.29,1.31-3.79,3.42-5.29,5.46-4,5.41-7.85,10.9-11.69,16.4-4.39,6.29-8.7,12.64-13,19-0.36.52-.68,1.08-1,1.63a0.79,0.79,0,0,0,.66,1Zm76.09-37.37a2.62,2.62,0,0,0-.5-0.78q-2.33-1.68-4.71-3.29a1,1,0,0,0-1.56.5c-1.6,3.31-3.14,6.64-4.78,9.93-2.57,5.14-5.27,10.22-7.79,15.39-1.75,3.58-3.3,7.27-4.9,10.92a1.45,1.45,0,0,0,.31.69,1.73,1.73,0,0,0,.39-0.26c0.41-.49.83-1,1.2-1.49l21.14-29.09a14.47,14.47,0,0,0,1-1.61A3,3,0,0,0,161.28,753.82ZM65.71,781.38h0c0,1,0,1.91,0,2.87a1.78,1.78,0,0,0,.4,1.22c0.48,0.34.87-.15,1.13-0.55,5.5-8.4,11-16.79,16.45-25.22,1.1-1.7,2.35-3.39,2.65-5.46,0.1-.68-0.51-0.29-4,4.16-2.27,2.88-4.54,5.75-6.86,8.59A63.48,63.48,0,0,1,67,776.07,3.36,3.36,0,0,0,65.7,779C65.73,779.79,65.71,780.58,65.71,781.38Zm56.64-29.83a6.57,6.57,0,0,0,.27-1.19,0.58,0.58,0,0,0-.22-0.39,0.45,0.45,0,0,0-.42,0c-2.76,2.5-4.62,5.68-6.53,8.79-5.51,9-11,18-16.42,27-0.41.68-.84,1.36-1.25,2-0.28.47-.12,1.18,0.28,1.19a2,2,0,0,0,1.32-.24,9.92,9.92,0,0,0,1.45-1.88c2.71-4.14,5.45-8.27,8.1-12.45,3.33-5.26,6.63-10.54,9.82-15.89C120.21,756.09,121.38,753.45,122.35,751.55Zm11.72,19.67a2.78,2.78,0,0,0-.05.53,0.78,0.78,0,0,0,.14.42,1.05,1.05,0,0,0,.71-0.13c2.85-4.22,5.72-8.44,8.5-12.7,2.53-3.87,5-7.78,7.45-11.69a1.69,1.69,0,0,0-.43-2.51,23,23,0,0,0-1.86-1.49,1.15,1.15,0,0,0-1.62.41c-0.53,1-1,2-1.52,3q-5.09,10.81-10.16,21.63C134.83,769.52,134.44,770.4,134.07,771.22Zm-15,15.6a5.55,5.55,0,0,1,1-.13c2.14-.06,3.4-1.08,4.31-3.09,3.68-8.14,7.54-16.21,11.33-24.3,0.07-.14.13-0.29,0.19-0.44,0.15-.4.6-0.85,0-1.18a1.19,1.19,0,0,0-.73.53q-8.3,13.17-16.56,26.37a13.67,13.67,0,0,0-.66,1.28A0.94,0.94,0,0,0,119.08,786.82Zm26,5.69a3.23,3.23,0,0,0,.84-0.35c1.85-1.5,3.66-3,5.52-4.53a5.9,5.9,0,0,0,1.88-2.68c1.89-5.05,3.8-10.1,5.71-15.14,0.06-.15.12-0.29,0.16-0.45a0.94,0.94,0,0,0-.18-1.22,1.25,1.25,0,0,0-.72.54q-6.64,11.28-13.24,22.59a4.2,4.2,0,0,0-.29.88C144.67,792.48,144.77,792.6,145.08,792.51ZM64.81,759.37c0,0.76,0,1.72.18,2.66a1.66,1.66,0,0,0,.65,1.13c0.52,0.26.78-.27,0.93-0.71,1.54-4.34,3.09-8.68,4.59-13a11.17,11.17,0,0,0,.36-2.33,0.53,0.53,0,0,0-.22-0.41,0.52,0.52,0,0,0-.46,0c-1.34.84-2.67,1.69-4,2.57a3.41,3.41,0,0,0-1.5,2.83C65.21,754.41,65,756.79,64.81,759.37Zm99.75,4.93a10.52,10.52,0,0,0-.48,1.5c-0.29,1.53-1.37,2.88-1,4.54,1.78-.59,2.32-2.34,3.33-3.63,1.47-1.87,2.81-3.84,4.18-5.79a1.29,1.29,0,0,0-.44-2c-0.79-.52-1.62-1-2.45-1.47a0.94,0.94,0,0,0-1.48.56C165.66,760,165.16,762,164.56,764.3Zm-29.79,34.37a7,7,0,0,0,.15,1.4,1.38,1.38,0,0,0,.53.56,0.46,0.46,0,0,0,.4-0.16c1-1.61,2.07-3.2,3-4.84,2.07-3.57,4.09-7.17,6.12-10.77a0.8,0.8,0,0,0-.09-0.42c-0.22-.83-1.08.23-8.11,10-0.37.52-.72,1-1.12,1.54A3.78,3.78,0,0,0,134.77,798.67ZM171.43,770c0-.34-0.06-1.14-0.2-1.92a1.15,1.15,0,0,0-.59-0.53,0.5,0.5,0,0,0-.41.16,10.8,10.8,0,0,0-.92,1.09q-3,4.27-6.06,8.56a0.9,0.9,0,0,0-.08.82,0.85,0.85,0,0,0,.79.23q3.4-2.18,6.75-4.45a2.12,2.12,0,0,0,.89-2.08Zm-33.55,5.11a0.87,0.87,0,0,0-.36,0,0.81,0.81,0,0,0-.38.27q-2.86,4.06-5.7,8.14a3.43,3.43,0,0,0-.39.85,0.51,0.51,0,0,0,0,.43,1.61,1.61,0,0,0,.81.34,2.49,2.49,0,0,0,2.3-1.4c1.28-2.71,2.5-5.45,3.73-8.18A0.89,0.89,0,0,0,137.87,775.12Zm-9.21-29.67c-1.35,0-2.25.29-2,1.53,0.4,2.27-.53,4.33-1.14,6.43a0.66,0.66,0,0,0,.09.42,1,1,0,0,0,.66-0.13c1.35-2.3,2.66-4.63,4-6.95a0.56,0.56,0,0,0,.06-0.44,1.34,1.34,0,0,0-.5-0.68A4.57,4.57,0,0,0,128.66,745.45Zm-17.85,42.43a2.22,2.22,0,0,0,.75-0.5c0.56-1,1.06-2,1.59-2.94a0.55,0.55,0,0,0-.18-0.83,0.52,0.52,0,0,0-.39.2,11.16,11.16,0,0,0-2.35,3.52,0.53,0.53,0,0,0,.2.38A1.32,1.32,0,0,0,110.81,787.88Zm64.38-23.57a7.24,7.24,0,0,0,0,1.29,1,1,0,0,0,.4.69,1.11,1.11,0,0,0,.83-0.33,6.34,6.34,0,0,0,.82-1.17c0.49-.81.28-1.34-0.71-1.86a0.75,0.75,0,0,0-1.17.31C175.29,763.71,175.21,764.18,175.19,764.31ZM143.27,740a6.1,6.1,0,0,0-.63-0.59,0.5,0.5,0,0,0-.45-0.06,3.88,3.88,0,0,0-1,2.94,0.42,0.42,0,0,0,.34.19A2.68,2.68,0,0,0,143.27,740Zm-77.35,5.07a7.27,7.27,0,0,0,1.2-.52,2.73,2.73,0,0,0,.56-0.73,2,2,0,0,0-.75-0.4,3.19,3.19,0,0,0-1.34.22,0.87,0.87,0,0,0-.34.76A2,2,0,0,0,65.92,745.08Zm46.85,31.62c0.34-.56.89-1.46,1.41-2.38A0.44,0.44,0,0,0,114,774a0.36,0.36,0,0,0-.34.08q-0.8,1.11-1.56,2.25a1,1,0,0,0,0,.42C112.07,777,112.18,777.11,112.77,776.7Zm-4.53-30a1.56,1.56,0,0,0,.42.7,1.1,1.1,0,0,0,.82-0.22,1.65,1.65,0,0,0,.57-0.68,0.9,0.9,0,0,0,0-.76,1.2,1.2,0,0,0-.83-0.24A1,1,0,0,0,108.24,746.65Z" transform="translate(-60.53 -720.8)"/></svg>