<svg id="Layer_1" data-name="Layer 1" xmlns="http://www.w3.org/2000/svg" viewBox="0 0 142.58 77.91"><title>arrow-43</title><path d="M1048.8,953.6c-3.87.14-9-.47-14.06-0.8a11.76,11.76,0,0,1-1.42-.21,1.77,1.77,0,0,1-1.35-1.73c0.17-2.34,1.72-4.1,3.85-4.11s4.47,0.14,6.71.3a158.33,158.33,0,0,0,25.87,0c3-.27,3.75.61,3.27,3.57a36.31,36.31,0,0,1-3.76,11.33c-2.94,5.5-6.06,10.89-9.15,16.31a6.69,6.69,0,0,1-1.61,1.74,1.52,1.52,0,0,1-1.79.13,1.65,1.65,0,0,1-.91-1.56,6.22,6.22,0,0,1,.62-2.28c1-2,2.25-3.87,3.32-5.83q3.33-6.1,6.57-12.25a1.72,1.72,0,0,0-.11-0.83,2.33,2.33,0,0,0-.82.29A67.64,67.64,0,0,1,1049,967.81a70.21,70.21,0,0,1-21.87,6.81c-3.63.54-7.26,1.17-10.91,1.6a60.73,60.73,0,0,1-19.57-.57,36.1,36.1,0,0,1-11.14-4.28,22.94,22.94,0,0,1-11.3-15.9c-0.12-.63-0.16-1.28-0.34-1.89a2,2,0,0,0-1.66-1.54c-2.05-.31-4.12-0.52-6.17-0.85-10.67-1.7-19-7.35-25.47-15.74a53.86,53.86,0,0,1-10.61-23.86,47.52,47.52,0,0,1-.69-4.74,4.42,4.42,0,0,1,2.06-4.08,1.72,1.72,0,0,1,2.68.91c0.4,2,.68,4.1,1.14,6.12a50.65,50.65,0,0,0,12.41,24,42.26,42.26,0,0,0,7.7,6.46c5.22,3.42,11.05,4.9,17.19,5.4a1.55,1.55,0,0,0,1.76-1.26c0.33-1.07.61-2.15,0.95-3.22,3.72-11.62,11.76-18.28,23.61-20.6a17.68,17.68,0,0,1,8.54.08,17.89,17.89,0,0,1,4,1.6,8.71,8.71,0,0,1,4.24,9.42,17.87,17.87,0,0,1-5.18,9.55,26.86,26.86,0,0,1-6.61,4.73,53.1,53.1,0,0,1-19.61,5.92c-1.26.12-2.52,0.36-3.77,0.58a1.2,1.2,0,0,0-.76,1.52c0.1,0.3.19,0.61,0.3,0.91a21,21,0,0,0,11.15,12c5,2.41,10.33,3.28,15.78,3.68a71.84,71.84,0,0,0,15.29-1c3.64-.51,7.25-1.18,10.89-1.73a28,28,0,0,0,8.24-2.47q7.52-3.72,14.89-7.72a33.94,33.94,0,0,0,4.21-3.12,0.54,0.54,0,0,0,0-.43,0.46,0.46,0,0,0-.24-0.32,16.49,16.49,0,0,0-1.9-.16C1055.5,953.59,1052.78,953.6,1048.8,953.6ZM983,945.83a34.74,34.74,0,0,0,9-1.28,62,62,0,0,0,14.12-5.88,9,9,0,0,0,3.76-3.59,5.54,5.54,0,0,0-3-8.22,13.14,13.14,0,0,0-6.14-.74c-1.74.26-3.49,0.49-5.2,0.87-8,1.79-13.15,6.85-15.85,14.48a13.9,13.9,0,0,0-.51,2.81,1.44,1.44,0,0,0,1.44,1.54C981.42,945.86,982.22,945.83,983,945.83Z" transform="translate(-929.23 -902.45)"/></svg>